<?xml version="1.0" encoding="UTF-8"?>
<svg id="White" xmlns="http://www.w3.org/2000/svg" version="1.1" viewBox="0 0 3000 3000">
  <!-- Generator: Adobe Illustrator 29.5.0, SVG Export Plug-In . SVG Version: 2.1.0 Build 137)  -->
  <defs>
    <style>
      .st0 {
        fill: #fff;
      }
    </style>
  </defs>
  <g id="Layer_10">
    <rect x="-28" y="-28" width="3056" height="3056"/>
  </g>
  <g>
    <path class="st0" d="M2165.55,1005.7c-41.12-117.61-100.49-222.89-176.46-312.92-159.13-188.57-377.28-292.42-614.26-292.42-120.6,0-239.07,26.3-352.12,78.17-54.17,24.86-106.62,55.55-155.88,91.21-48.83,35.36-94.87,75.86-136.84,120.37-85.66,90.85-153.07,196.02-200.37,312.6-49.43,121.83-74.49,250.61-74.49,382.76s21.2,260.07,63.01,379.75c41.09,117.61,100.42,222.89,176.35,312.91,159.05,188.58,377.14,292.43,614.11,292.43,120.6,0,239.08-26.3,352.16-78.17,54.19-24.86,106.65-55.54,155.92-91.21,48.85-35.36,94.91-75.85,136.89-120.36,85.7-90.85,153.16-196.02,200.49-312.6,49.47-121.84,74.55-250.62,74.55-382.77s-21.22-260.07-63.07-379.77ZM1308.61,2240.58c-405.69,0-723.48-375.61-723.48-855.11s361.64-855.13,789.71-855.13c405.87,0,723.8,375.62,723.8,855.13s-361.79,855.11-790.02,855.11Z"/>
    <path class="st0" d="M2626.73,2322.48c-14.38,24.71-30.69,47.41-49.19,67.39-52.21,56.37-116.22,83.77-195.7,83.77-99.99,0-168.37-40.98-221.73-132.85-3.46-5.95-6.81-12.05-10.07-18.3-33.52-64.22-57.03-143.55-77.5-225.59-7.64-30.59-14.86-61.56-22-92.26-27.04-116.11-52.57-225.77-98.17-313.52-27-51.96-58.41-91.04-96.03-119.47-43.72-33.04-95.24-50.67-153.13-52.43-156.08-4.72-293.84,80.03-400.52,245.7l56.51-1271.87h-129.31l-72.01,1602.78,139.83,1.07c10.16-36.83,40.21-134.91,95.16-230.22,85.27-147.92,188.36-221.11,306.43-217.54,60.37,1.83,101.56,32.3,137.73,101.91,38.06,73.24,61.79,175.16,86.93,283.08,4.86,20.86,9.74,41.83,14.77,62.78,18.66,77.72,39.36,155.19,68.27,225.59,12,29.24,25.43,57.26,40.71,83.57,36.16,62.27,78.74,108.57,130.19,141.56,57.96,37.16,126.57,56.01,203.94,56.01,59.87,0,115.71-11.51,165.96-34.22,46.42-20.97,88.57-51.72,125.27-91.38,38.58-41.7,71.64-93.82,98.72-155.54h-145.06Z"/>
  </g>
</svg>